# xmcd
#
# Track frame offsets:
#	150
#	27125
#	65457
#	98530
#	117298
#	149300
#	179578
#
# Disc length: 2823 seconds
#
# Revision: 0
# Processed by: cddbd v1.5.2PL0 Copyright (c) Steve Scherf et al.
# Submitted via: audiograbber 1.83.01
#
DISCID=590b0507
DTITLE=Eric Clapton and Jeff Beck - Live At Saitama, Japan 2-22-2009 [CD3]
DYEAR=2009
DGENRE=
TTITLE0=You Need Love
TTITLE1=Listen Here - Compared To What
TTITLE2=Here But I'm Gone
TTITLE3=Outside Woman Blues
TTITLE4=Brown Bird
TTITLE5=Wee Wee Baby
TTITLE6=Want To Take You Higher
EXTD=
EXTT0=
EXTT1=
EXTT2=
EXTT3=
EXTT4=
EXTT5=
EXTT6=
PLAYORDER=
